<?xml version="1.0" encoding="utf-8"?>
<svg version="1.1" viewBox="0 0 160 160" xmlns="http://www.w3.org/2000/svg">
  <defs>
    <linearGradient x1="161.25144" y1="235" x2="388.74856" y2="235" gradientUnits="userSpaceOnUse" id="color-192842" gradientTransform="matrix(1, 0, 0, 1, -59, 0)">
      <stop offset="0" stop-color="#19647E"/>
      <stop offset="1" stop-color="#0093C7"/>
    </linearGradient>
  </defs>
  <g data-paper-data="{&quot;fillRule&quot;:&quot;evenodd&quot;,&quot;isIcon&quot;:&quot;true&quot;,&quot;iconType&quot;:&quot;icon&quot;,&quot;rawIconId&quot;:&quot;2034850&quot;,&quot;selectedEffects&quot;:{&quot;container&quot;:&quot;&quot;,&quot;transformation&quot;:&quot;&quot;,&quot;pattern&quot;:&quot;&quot;},&quot;iconStyle&quot;:&quot;standalone&quot;,&quot;bounds&quot;:{&quot;x&quot;:214.35201513846096,&quot;y&quot;:114.99999999999999,&quot;width&quot;:121.29596972307809,&quot;height&quot;:126.44396843807614},&quot;suitableAsStandaloneIcon&quot;:true}" fill-rule="evenodd" transform="matrix(1, 0, 0, 1, -195, -98.221977)" fill="url(#color-192842)" stroke="none" stroke-width="1" stroke-linecap="butt" stroke-linejoin="miter" stroke-miterlimit="10" stroke-dasharray="" stroke-dashoffset="0" font-family="none" font-weight="500" font-size="20" text-anchor="none" style="mix-blend-mode: normal;">
    <g data-paper-data="{&quot;isPathIcon&quot;:true}">
      <path d="M316.14099,154.00999c10.758,0 19.507,-8.75 19.507,-19.505c0,-10.756 -8.749,-19.505 -19.507,-19.505c-10.753,0 -19.503,8.749 -19.503,19.505c0.003,10.755 8.75,19.505 19.503,19.505zM307.19799,137.30799c-1.574,-1.571 -2.433,-3.657 -2.433,-5.875c0.005,-2.221 0.864,-4.308 2.438,-5.876c3.137,-3.14 8.602,-3.14 11.749,0c2.911,2.913 3.18,7.46 0.849,10.704l7.331,7.334c0.524,0.524 0.524,1.375 0,1.899c-0.263,0.26 -0.609,0.392 -0.95,0.392c-0.347,0 -0.688,-0.129 -0.951,-0.392l-7.331,-7.332c-1.405,1.013 -3.07,1.577 -4.832,1.577c-2.218,0 -4.31,-0.865 -5.87,-2.431z"/>
      <path d="M214.35202,180.79698c0,-33.44199 27.20699,-60.64898 60.64698,-60.64898c7.439,0 14.671,1.38 21.53699,3.996c-1.64,3.097 -2.58,6.62 -2.58,10.361c0,12.235 9.955,22.18999 22.18699,22.18999c4.684,0 9.026,-1.466 12.609,-3.953c4.498,8.612 6.896,18.267 6.896,28.05499c0,33.43999 -27.20399,60.64698 -60.64898,60.64698c-33.43999,0 -60.64698,-27.20699 -60.64698,-60.64698zM303.02999,159.47999c0,-3.703 -3.011,-6.714 -6.714,-6.714h-42.63199c-3.701,0 -6.714,3.013 -6.714,6.714v42.63199c0,3.704 3.013,6.714 6.714,6.714h42.63199c3.703,0 6.714,-3.01 6.714,-6.714z"/>
      <path d="M317.04299,135.40399c2.191,-2.191 2.191,-5.76 0,-7.951c-1.061,-1.061 -2.476,-1.647 -3.975,-1.647c-1.498,0 -2.911,0.583 -3.974,1.647c-1.061,1.063 -1.641,2.476 -1.646,3.977c0,1.501 0.582,2.911 1.646,3.974c2.116,2.125 5.819,2.125 7.949,0z"/>
      <path d="M249.65601,202.11198c0,2.218 1.807,4.028 4.028,4.028h42.62899c2.224,0 4.029,-1.81 4.029,-4.028v-42.63199c0,-2.224 -1.805,-4.028 -4.029,-4.028h-42.62899c-2.221,0 -4.028,1.807 -4.028,4.028zM253.51501,160.65299c0,-0.741 0.604,-1.342 1.342,-1.342h6.378c0.739,0 1.343,0.601 1.343,1.342v6.379c0,0.741 -0.604,1.342 -1.343,1.342h-6.378c-0.741,0 -1.342,-0.601 -1.342,-1.342zM274.999,193.38398c-6.942,0 -12.59,-5.647 -12.59,-12.589c0,-6.942 5.653,-12.587 12.59,-12.587c6.942,0 12.587,5.647 12.587,12.589c0,6.942 -5.643,12.587 -12.587,12.587z"/>
      <path d="M256.2,161.99599h3.693v3.693h-3.693z"/>
      <path d="M284.9,180.79498c0,5.462 -4.442,9.904 -9.901,9.904c-5.46,0 -9.904,-4.442 -9.904,-9.904c0,-5.463 4.441,-9.904 9.904,-9.904c5.465,0 9.901,4.441 9.901,9.904z"/>
    </g>
  </g>
</svg>