<?xml version="1.0" encoding="utf-8"?>
<svg version="1.1" viewBox="0 0 330 330" xmlns="http://www.w3.org/2000/svg" >
  <g fill="none" fill-rule="none" stroke="none" stroke-width="1" stroke-linecap="butt" stroke-linejoin="miter" stroke-miterlimit="10" stroke-dasharray="" stroke-dashoffset="0" font-family="none" font-weight="500" font-size="20" text-anchor="none" style="mix-blend-mode: normal" transform="matrix(1, 0, 0, 1, -110.500221, -69.999992)">
    <g data-paper-data="{&quot;isGlobalGroup&quot;:true,&quot;bounds&quot;:{&quot;x&quot;:161.25144193669377,&quot;y&quot;:114.99999999999999,&quot;width&quot;:227.4971161266124,&quot;height&quot;:240}}">
      <g data-paper-data="{&quot;textHeightFactor&quot;:0.4806597290398586,&quot;isSecondaryText&quot;:true}" fill-rule="nonzero">
        <path d="M 170.086 354.784 C 169.762 354.784 169.486 354.52 169.486 354.183 L 169.486 345.945 C 169.486 345.609 169.762 345.345 170.086 345.345 L 173.653 345.345 C 173.701 345.345 173.989 345.345 174.361 345.441 C 174.89 345.573 175.358 345.837 175.718 346.185 C 175.982 346.45 176.199 346.774 176.343 347.146 C 176.499 347.554 176.583 348.023 176.583 348.539 C 176.583 349.68 176.103 350.545 175.202 351.061 C 174.553 351.433 173.689 351.614 172.62 351.614 C 172.296 351.614 172.02 351.349 172.02 351.013 C 172.02 350.677 172.296 350.413 172.62 350.413 C 173.473 350.413 174.145 350.281 174.601 350.016 C 175.13 349.716 175.382 349.248 175.382 348.539 C 175.382 348.059 175.286 347.663 175.118 347.362 C 174.986 347.122 174.794 346.942 174.565 346.81 C 174.133 346.558 173.689 346.546 173.653 346.546 L 170.687 346.546 L 170.687 354.183 C 170.687 354.52 170.422 354.784 170.086 354.784 Z" data-paper-data="{&quot;glyphName&quot;:&quot;P&quot;,&quot;glyphIndex&quot;:0,&quot;firstGlyphOfWord&quot;:true,&quot;word&quot;:1}" style="paint-order: fill; fill-rule: evenodd; fill: rgb(255, 255, 255);"/>
        <path d="M 193.37 345.321 C 193.046 345.321 192.77 345.585 192.77 345.921 L 192.77 349.356 L 187.594 349.356 L 187.594 345.921 C 187.594 345.585 187.33 345.321 186.994 345.321 C 186.657 345.321 186.393 345.585 186.393 345.921 L 186.393 354.159 C 186.393 354.484 186.657 354.76 186.994 354.76 C 187.33 354.76 187.594 354.484 187.594 354.159 L 187.594 350.557 L 192.77 350.557 L 192.77 354.159 C 192.77 354.484 193.046 354.76 193.37 354.76 C 193.707 354.76 193.971 354.484 193.971 354.159 L 193.971 345.921 C 193.971 345.585 193.707 345.321 193.37 345.321 Z" data-paper-data="{&quot;glyphName&quot;:&quot;H&quot;,&quot;glyphIndex&quot;:1,&quot;word&quot;:1}" style="paint-order: fill; fill-rule: evenodd; fill: rgb(255, 255, 255);"/>
        <path d="M 209.251 354.988 C 208.59 354.988 207.942 354.856 207.33 354.592 C 206.741 354.34 206.213 353.991 205.756 353.535 C 205.312 353.079 204.952 352.562 204.7 351.974 C 204.447 351.373 204.315 350.737 204.315 350.088 C 204.315 349.428 204.447 348.791 204.712 348.191 C 204.964 347.615 205.324 347.086 205.78 346.642 C 206.237 346.185 206.765 345.837 207.354 345.585 C 207.966 345.333 208.614 345.201 209.287 345.201 C 210.596 345.201 211.821 345.717 212.734 346.654 C 213.178 347.098 213.514 347.627 213.754 348.203 C 214.006 348.803 214.127 349.44 214.127 350.088 C 214.127 350.749 214.006 351.385 213.754 351.974 C 213.514 352.562 213.166 353.091 212.722 353.535 C 211.797 354.472 210.572 354.988 209.251 354.988 Z M 209.287 346.402 C 208.783 346.402 208.29 346.498 207.822 346.69 C 207.366 346.882 206.969 347.146 206.621 347.494 C 206.273 347.831 205.997 348.227 205.816 348.671 C 205.612 349.116 205.516 349.596 205.516 350.088 C 205.516 350.581 205.612 351.049 205.804 351.505 C 205.997 351.95 206.261 352.346 206.609 352.682 C 207.318 353.391 208.254 353.787 209.251 353.787 C 210.248 353.787 211.172 353.391 211.869 352.694 C 212.205 352.358 212.457 351.962 212.649 351.517 C 212.83 351.061 212.926 350.581 212.926 350.088 C 212.926 349.104 212.553 348.179 211.881 347.494 C 211.196 346.786 210.272 346.402 209.287 346.402 Z" data-paper-data="{&quot;glyphName&quot;:&quot;O&quot;,&quot;glyphIndex&quot;:2,&quot;word&quot;:1}" style="paint-order: fill; fill-rule: evenodd; fill: rgb(255, 255, 255);"/>
        <path d="M 230.341 345.345 L 223.868 345.345 C 223.531 345.345 223.267 345.609 223.267 345.945 C 223.267 346.282 223.531 346.546 223.868 346.546 L 226.51 346.546 L 226.51 354.183 C 226.51 354.52 226.774 354.784 227.11 354.784 C 227.434 354.784 227.711 354.52 227.711 354.183 L 227.711 346.546 L 230.341 346.546 C 230.677 346.546 230.941 346.282 230.941 345.945 C 230.941 345.609 230.677 345.345 230.341 345.345 Z" data-paper-data="{&quot;glyphName&quot;:&quot;T&quot;,&quot;glyphIndex&quot;:3,&quot;word&quot;:1}" style="paint-order: fill; fill-rule: evenodd; fill: rgb(255, 255, 255);"/>
        <path d="M 244.667 354.988 C 244.007 354.988 243.358 354.856 242.746 354.592 C 242.157 354.34 241.629 353.991 241.173 353.535 C 240.728 353.079 240.368 352.562 240.116 351.974 C 239.864 351.373 239.732 350.737 239.732 350.088 C 239.732 349.428 239.864 348.791 240.128 348.191 C 240.38 347.615 240.74 347.086 241.197 346.642 C 241.653 346.185 242.181 345.837 242.77 345.585 C 243.382 345.333 244.031 345.201 244.703 345.201 C 246.012 345.201 247.237 345.717 248.15 346.654 C 248.594 347.098 248.93 347.627 249.17 348.203 C 249.423 348.803 249.543 349.44 249.543 350.088 C 249.543 350.749 249.423 351.385 249.17 351.974 C 248.93 352.562 248.582 353.091 248.138 353.535 C 247.213 354.472 245.988 354.988 244.667 354.988 Z M 244.703 346.402 C 244.199 346.402 243.706 346.498 243.238 346.69 C 242.782 346.882 242.385 347.146 242.037 347.494 C 241.689 347.831 241.413 348.227 241.233 348.671 C 241.028 349.116 240.932 349.596 240.932 350.088 C 240.932 350.581 241.028 351.049 241.221 351.505 C 241.413 351.95 241.677 352.346 242.025 352.682 C 242.734 353.391 243.67 353.787 244.667 353.787 C 245.664 353.787 246.589 353.391 247.285 352.694 C 247.621 352.358 247.874 351.962 248.066 351.517 C 248.246 351.061 248.342 350.581 248.342 350.088 C 248.342 349.104 247.97 348.179 247.297 347.494 C 246.613 346.786 245.688 346.402 244.703 346.402 Z" data-paper-data="{&quot;glyphName&quot;:&quot;O&quot;,&quot;glyphIndex&quot;:4,&quot;lastGlyphOfWord&quot;:true,&quot;word&quot;:1}" style="paint-order: fill; fill-rule: evenodd; fill: rgb(255, 255, 255);"/>
        <path d="M 276.606 355 C 275.933 355 275.285 354.868 274.684 354.604 C 274.096 354.364 273.568 354.003 273.111 353.547 C 272.655 353.103 272.307 352.574 272.054 351.998 C 271.79 351.385 271.67 350.749 271.67 350.1 C 271.67 349.44 271.802 348.803 272.054 348.203 C 272.307 347.627 272.667 347.098 273.123 346.654 C 273.58 346.197 274.12 345.849 274.708 345.597 C 275.321 345.345 275.969 345.213 276.63 345.213 C 277.651 345.213 278.611 345.525 279.428 346.101 C 279.704 346.294 279.764 346.666 279.572 346.942 C 279.38 347.206 279.008 347.278 278.731 347.086 C 278.119 346.642 277.398 346.414 276.63 346.414 C 276.125 346.414 275.633 346.51 275.165 346.714 C 274.72 346.894 274.312 347.17 273.976 347.506 C 273.628 347.855 273.351 348.239 273.159 348.683 C 272.967 349.14 272.871 349.608 272.871 350.1 C 272.871 350.593 272.967 351.073 273.159 351.517 C 273.351 351.962 273.616 352.358 273.964 352.694 C 274.672 353.403 275.609 353.799 276.606 353.799 C 277.134 353.799 277.651 353.691 278.119 353.475 C 278.503 353.295 278.864 353.055 279.164 352.754 L 279.164 350.257 C 279.164 349.92 279.428 349.656 279.764 349.656 C 280.1 349.656 280.365 349.92 280.365 350.257 L 280.365 353.007 C 280.365 353.151 280.305 353.295 280.208 353.403 C 279.752 353.895 279.224 354.292 278.611 354.568 C 277.987 354.856 277.302 355 276.606 355 Z" data-paper-data="{&quot;glyphName&quot;:&quot;G&quot;,&quot;glyphIndex&quot;:5,&quot;firstGlyphOfWord&quot;:true,&quot;word&quot;:2}" style="paint-order: fill; fill-rule: evenodd; fill: rgb(255, 255, 255);"/>
        <path d="M 291.43 354.784 C 291.31 354.784 291.178 354.748 291.07 354.664 C 290.842 354.496 290.758 354.183 290.89 353.919 L 294.889 345.681 C 294.997 345.477 295.201 345.345 295.429 345.345 C 295.657 345.345 295.873 345.477 295.969 345.681 L 299.992 353.907 C 300.136 354.195 300.016 354.556 299.716 354.7 C 299.416 354.856 299.056 354.724 298.912 354.436 L 297.975 352.502 C 297.35 352.322 296.69 352.298 295.981 352.43 C 295.321 352.55 294.636 352.79 293.928 353.163 C 292.703 353.811 291.85 354.604 291.838 354.616 C 291.73 354.724 291.574 354.784 291.43 354.784 Z M 295.429 347.314 L 293.015 352.298 C 293.123 352.238 293.231 352.178 293.351 352.118 C 294.156 351.686 294.973 351.397 295.753 351.253 C 296.294 351.157 296.81 351.121 297.314 351.169 Z" data-paper-data="{&quot;glyphName&quot;:&quot;A&quot;,&quot;glyphIndex&quot;:6,&quot;word&quot;:2}" style="paint-order: fill; fill-rule: evenodd; fill: rgb(255, 255, 255);"/>
        <path d="M 315.137 354.784 L 309.901 354.784 C 309.577 354.784 309.301 354.52 309.301 354.183 L 309.301 345.945 C 309.301 345.609 309.577 345.345 309.901 345.345 C 310.238 345.345 310.502 345.609 310.502 345.945 L 310.502 353.583 L 315.137 353.583 C 315.473 353.583 315.738 353.847 315.738 354.183 C 315.738 354.52 315.473 354.784 315.137 354.784 Z" data-paper-data="{&quot;glyphName&quot;:&quot;L&quot;,&quot;glyphIndex&quot;:7,&quot;word&quot;:2}" style="paint-order: fill; fill-rule: evenodd; fill: rgb(255, 255, 255);"/>
        <path d="M 330.972 354.784 L 325.736 354.784 C 325.412 354.784 325.135 354.52 325.135 354.183 L 325.135 345.945 C 325.135 345.609 325.412 345.345 325.736 345.345 C 326.072 345.345 326.336 345.609 326.336 345.945 L 326.336 353.583 L 330.972 353.583 C 331.308 353.583 331.572 353.847 331.572 354.183 C 331.572 354.52 331.308 354.784 330.972 354.784 Z" data-paper-data="{&quot;glyphName&quot;:&quot;L&quot;,&quot;glyphIndex&quot;:8,&quot;word&quot;:2}" style="paint-order: fill; fill-rule: evenodd; fill: rgb(255, 255, 255);"/>
        <path d="M 347.426 353.571 L 342.286 353.571 L 342.286 350.641 L 346.73 350.641 C 347.066 350.641 347.33 350.377 347.33 350.04 C 347.33 349.716 347.066 349.44 346.73 349.44 L 342.286 349.44 L 342.286 346.546 L 347.306 346.546 C 347.642 346.546 347.907 346.282 347.907 345.945 C 347.907 345.609 347.642 345.345 347.306 345.345 L 341.686 345.345 C 341.362 345.345 341.086 345.609 341.086 345.945 L 341.086 354.171 C 341.086 354.508 341.362 354.772 341.686 354.772 L 347.426 354.772 C 347.762 354.772 348.027 354.508 348.027 354.171 C 348.027 353.835 347.762 353.571 347.426 353.571 Z" data-paper-data="{&quot;glyphName&quot;:&quot;E&quot;,&quot;glyphIndex&quot;:9,&quot;word&quot;:2}" style="paint-order: fill; fill-rule: evenodd; fill: rgb(255, 255, 255);"/>
        <path d="M 358.433 354.784 C 358.097 354.784 357.833 354.508 357.833 354.183 L 357.833 345.945 C 357.833 345.609 358.097 345.345 358.433 345.345 L 362 345.345 C 362.048 345.345 362.336 345.345 362.709 345.441 C 363.237 345.573 363.705 345.837 364.054 346.185 C 364.33 346.45 364.534 346.774 364.678 347.146 C 364.846 347.554 364.918 348.023 364.918 348.539 C 364.918 349.668 364.438 350.545 363.537 351.061 C 363.321 351.181 363.081 351.289 362.817 351.361 C 363.333 351.806 363.801 352.37 364.174 353.031 C 364.486 353.559 364.822 353.559 364.87 353.559 C 365.194 353.523 365.495 353.739 365.543 354.063 C 365.591 354.388 365.363 354.7 365.038 354.748 C 364.954 354.76 364.678 354.784 364.306 354.664 C 363.982 354.544 363.513 354.279 363.141 353.631 C 362.721 352.91 362.204 352.346 361.604 351.962 C 361.183 351.686 360.871 351.601 360.847 351.601 C 360.535 351.541 360.331 351.265 360.367 350.953 C 360.391 350.641 360.655 350.413 360.967 350.413 C 361.82 350.413 362.48 350.281 362.949 350.016 C 363.477 349.716 363.717 349.248 363.717 348.539 C 363.717 348.059 363.633 347.663 363.453 347.35 C 363.321 347.122 363.141 346.942 362.901 346.798 C 362.48 346.558 362.036 346.546 362 346.546 L 359.034 346.546 L 359.034 354.183 C 359.034 354.508 358.77 354.784 358.433 354.784 Z" data-paper-data="{&quot;glyphName&quot;:&quot;R&quot;,&quot;glyphIndex&quot;:10,&quot;word&quot;:2}" style="paint-order: fill; fill-rule: evenodd; fill: rgb(255, 255, 255);"/>
        <path d="M 382.911 345.441 C 382.635 345.261 382.263 345.333 382.083 345.609 L 379.345 349.704 L 376.619 345.609 C 376.439 345.333 376.066 345.261 375.79 345.441 C 375.514 345.633 375.442 346.005 375.622 346.282 L 378.744 350.965 L 378.744 354.183 C 378.744 354.508 379.02 354.784 379.345 354.784 C 379.681 354.784 379.945 354.508 379.945 354.183 L 379.945 350.965 L 383.079 346.282 C 383.26 346.005 383.188 345.633 382.911 345.441 Z" data-paper-data="{&quot;glyphName&quot;:&quot;Y&quot;,&quot;glyphIndex&quot;:11,&quot;lastGlyphOfWord&quot;:true,&quot;word&quot;:2}" style="paint-order: fill; fill-rule: evenodd; fill: rgb(255, 255, 255);"/>
        <path d="M 162.251 335.414 L 162.251 334.613 L 389.749 334.613 L 389.749 335.414 Z" data-paper-data="{&quot;isContainerTopLineAboveSecondaryText&quot;:true}" style="paint-order: fill; fill-rule: evenodd; fill: rgb(255, 255, 255);"/>
      </g>
      <g data-paper-data="{&quot;isPrimaryText&quot;:true}" fill-rule="nonzero">
        <path d="M179.32076,324.16713c-2.1642,0 -4.16192,-1.33181 -4.9943,-3.32954l-12.65224,-30.96468c-1.16534,-2.74687 0.16648,-5.82669 2.91334,-6.99203c2.83011,-1.16534 5.90993,0.16648 6.99203,2.91334l7.74117,18.81188l7.74117,-18.81188c1.0821,-2.74687 4.16192,-4.07868 6.99203,-2.91334c2.74687,1.16534 4.07868,4.24516 2.91334,6.99203l-12.65224,30.96468c-0.83238,1.99772 -2.83011,3.32954 -4.9943,3.32954z" data-paper-data="{&quot;glyphName&quot;:&quot;v&quot;,&quot;glyphIndex&quot;:0,&quot;firstGlyphOfWord&quot;:true,&quot;word&quot;:1}" style="paint-order: fill; fill-rule: evenodd; fill: rgb(255, 255, 255);"/>
        <path d="M212.53288,273.55819c0,2.58039 -2.1642,4.74459 -4.74459,4.74459c-2.58039,0 -4.74459,-2.1642 -4.74459,-4.74459c0,-2.66363 2.1642,-4.74459 4.74459,-4.74459c2.58039,0 4.74459,2.08096 4.74459,4.74459zM207.87153,324.16713c-3.07982,0 -5.49373,-2.41391 -5.49373,-5.4105v-31.29764c0,-2.99658 2.41391,-5.4105 5.49373,-5.4105c2.99658,0 5.4105,2.41391 5.4105,5.4105v31.29764c0,2.99658 -2.41391,5.4105 -5.4105,5.4105z" data-paper-data="{&quot;glyphName&quot;:&quot;i&quot;,&quot;glyphIndex&quot;:1,&quot;word&quot;:1}" style="paint-order: fill; fill-rule: evenodd; fill: rgb(255, 255, 255);"/>
        <path d="M235.17372,292.20359c-1.99772,-0.33295 -3.74573,-0.83238 -5.57697,0.24972c-1.49829,0.83238 -1.66477,2.99658 -0.16648,3.99544c1.33181,0.83238 2.1642,0.91562 3.49601,1.16534c5.16078,1.0821 9.23946,4.74459 10.57128,9.82213c1.33181,5.16078 -0.49943,10.82099 -4.66135,14.15053c-3.82897,3.16306 -9.48918,3.82897 -14.40024,2.66363c-1.99772,-0.49943 -4.57811,-1.49829 -5.90993,-3.16306c-1.33181,-1.66477 -1.41505,-4.57811 -0.24972,-6.24288c1.91448,-3.07982 5.32726,-2.49715 8.40708,-1.49829c1.99772,0.66591 5.32726,0.91562 6.15964,-1.41505c0.83238,-2.24744 -0.91562,-3.9122 -4.82783,-4.9943c-4.57811,-1.24858 -9.15622,-5.32726 -9.90537,-10.57128c-1.33181,-9.07298 8.65679,-16.23149 18.56216,-13.56786c1.49829,0.41619 3.16306,1.16534 4.24516,2.24744c1.41505,1.33181 1.99772,3.2463 0.83238,5.4105c-1.49829,2.58039 -4.16192,2.1642 -6.57583,1.74801z" data-paper-data="{&quot;glyphName&quot;:&quot;s&quot;,&quot;glyphIndex&quot;:2,&quot;word&quot;:1}" style="paint-order: fill; fill-rule: evenodd; fill: rgb(255, 255, 255);"/>
        <path d="M260.72791,273.55819c0,2.58039 -2.1642,4.74459 -4.74459,4.74459c-2.58039,0 -4.74459,-2.1642 -4.74459,-4.74459c0,-2.66363 2.1642,-4.74459 4.74459,-4.74459c2.58039,0 4.74459,2.08096 4.74459,4.74459zM256.06656,324.16713c-3.07982,0 -5.49373,-2.41391 -5.49373,-5.4105v-31.29764c0,-2.99658 2.41391,-5.4105 5.49373,-5.4105c2.99658,0 5.4105,2.41391 5.4105,5.4105v31.29764c0,2.99658 -2.41391,5.4105 -5.4105,5.4105z" data-paper-data="{&quot;glyphName&quot;:&quot;i&quot;,&quot;glyphIndex&quot;:3,&quot;word&quot;:1}" style="paint-order: fill; fill-rule: evenodd; fill: rgb(255, 255, 255);"/>
        <path d="M288.19658,282.21498c-11.73661,0 -21.30903,9.57242 -21.30903,21.30903c0,11.73661 9.57242,21.30903 21.30903,21.30903c11.73661,0 21.30903,-9.57242 21.30903,-21.30903c0,-11.73661 -9.57242,-21.30903 -21.30903,-21.30903zM288.19658,292.95273c5.82669,0 10.57128,4.74459 10.57128,10.57128c0,5.82669 -4.74459,10.57128 -10.57128,10.57128c-5.82669,0 -10.57128,-4.74459 -10.57128,-10.57128c0,-5.82669 4.74459,-10.57128 10.57128,-10.57128z" data-paper-data="{&quot;glyphName&quot;:&quot;o&quot;,&quot;glyphIndex&quot;:4,&quot;word&quot;:1}" style="paint-order: fill; fill-rule: evenodd; fill: rgb(255, 255, 255);"/>
        <path d="M324.07233,319.25606c0,2.66363 -2.24744,4.91107 -4.91107,4.91107c-2.74687,0 -5.07754,-2.24744 -5.07754,-4.91107c0,-2.83011 2.33068,-5.07754 5.07754,-5.07754c2.66363,0 4.91107,2.24744 4.91107,5.07754z" data-paper-data="{&quot;glyphName&quot;:&quot;.&quot;,&quot;glyphIndex&quot;:5,&quot;word&quot;:1}" style="paint-order: fill; fill-rule: evenodd; fill: rgb(255, 255, 255);"/>
        <path d="M366.02448,282.54793c-2.08096,0 -3.9122,1.24858 -4.66135,3.07982c-3.32954,-2.1642 -7.32498,-3.41277 -11.57014,-3.41277c-11.73661,0 -21.14255,9.57242 -21.14255,21.22579c0,11.73661 9.40594,21.30903 21.14255,21.30903c4.3284,0 8.32384,-1.24858 11.65338,-3.49601c0.83238,1.74801 2.58039,2.91334 4.57811,2.91334c2.83011,0 5.16078,-2.24744 5.16078,-4.9943v-31.63059c0,-2.74687 -2.33068,-4.9943 -5.16078,-4.9943zM349.95947,314.01204c-5.82669,0 -10.57128,-4.74459 -10.57128,-10.57128c0,-5.74345 4.74459,-10.48804 10.57128,-10.48804c5.82669,0 10.57128,4.74459 10.57128,10.48804c0,5.82669 -4.74459,10.57128 -10.57128,10.57128z" data-paper-data="{&quot;glyphName&quot;:&quot;a&quot;,&quot;glyphIndex&quot;:6,&quot;word&quot;:1}" style="paint-order: fill; fill-rule: evenodd; fill: rgb(255, 255, 255);"/>
        <path d="M387.99941,273.55819c0,2.58039 -2.1642,4.74459 -4.74459,4.74459c-2.58039,0 -4.74459,-2.1642 -4.74459,-4.74459c0,-2.66363 2.1642,-4.74459 4.74459,-4.74459c2.58039,0 4.74459,2.08096 4.74459,4.74459zM383.33806,324.16713c-3.07982,0 -5.49373,-2.41391 -5.49373,-5.4105v-31.29764c0,-2.99658 2.41391,-5.4105 5.49373,-5.4105c2.99658,0 5.4105,2.41391 5.4105,5.4105v31.29764c0,2.99658 -2.41391,5.4105 -5.4105,5.4105z" data-paper-data="{&quot;glyphName&quot;:&quot;i&quot;,&quot;glyphIndex&quot;:7,&quot;lastGlyphOfWord&quot;:true,&quot;word&quot;:1}" style="paint-order: fill; fill-rule: evenodd; fill: rgb(255, 255, 255);"/>
      </g>
      <g data-paper-data="{&quot;fillRule&quot;:&quot;evenodd&quot;,&quot;isIcon&quot;:&quot;true&quot;,&quot;iconType&quot;:&quot;icon&quot;,&quot;rawIconId&quot;:&quot;2034850&quot;,&quot;selectedEffects&quot;:{&quot;container&quot;:&quot;&quot;,&quot;transformation&quot;:&quot;&quot;,&quot;pattern&quot;:&quot;&quot;},&quot;iconStyle&quot;:&quot;standalone&quot;,&quot;bounds&quot;:{&quot;x&quot;:214.35201513846096,&quot;y&quot;:114.99999999999999,&quot;width&quot;:121.29596972307809,&quot;height&quot;:126.44396843807614},&quot;suitableAsStandaloneIcon&quot;:true}" fill-rule="evenodd">
        <g data-paper-data="{&quot;isPathIcon&quot;:true}">
          <path d="M316.14099,154.00999c10.758,0 19.507,-8.75 19.507,-19.505c0,-10.756 -8.749,-19.505 -19.507,-19.505c-10.753,0 -19.503,8.749 -19.503,19.505c0.003,10.755 8.75,19.505 19.503,19.505zM307.19799,137.30799c-1.574,-1.571 -2.433,-3.657 -2.433,-5.875c0.005,-2.221 0.864,-4.308 2.438,-5.876c3.137,-3.14 8.602,-3.14 11.749,0c2.911,2.913 3.18,7.46 0.849,10.704l7.331,7.334c0.524,0.524 0.524,1.375 0,1.899c-0.263,0.26 -0.609,0.392 -0.95,0.392c-0.347,0 -0.688,-0.129 -0.951,-0.392l-7.331,-7.332c-1.405,1.013 -3.07,1.577 -4.832,1.577c-2.218,0 -4.31,-0.865 -5.87,-2.431z" style="paint-order: fill; fill-rule: evenodd; fill: rgb(255, 255, 255);"/>
          <path d="M214.35202,180.79698c0,-33.44199 27.20699,-60.64898 60.64698,-60.64898c7.439,0 14.671,1.38 21.53699,3.996c-1.64,3.097 -2.58,6.62 -2.58,10.361c0,12.235 9.955,22.18999 22.18699,22.18999c4.684,0 9.026,-1.466 12.609,-3.953c4.498,8.612 6.896,18.267 6.896,28.05499c0,33.43999 -27.20399,60.64698 -60.64898,60.64698c-33.43999,0 -60.64698,-27.20699 -60.64698,-60.64698zM303.02999,159.47999c0,-3.703 -3.011,-6.714 -6.714,-6.714h-42.63199c-3.701,0 -6.714,3.013 -6.714,6.714v42.63199c0,3.704 3.013,6.714 6.714,6.714h42.63199c3.703,0 6.714,-3.01 6.714,-6.714z" style="paint-order: fill; fill-rule: evenodd; fill: rgb(255, 255, 255);"/>
          <path d="M317.04299,135.40399c2.191,-2.191 2.191,-5.76 0,-7.951c-1.061,-1.061 -2.476,-1.647 -3.975,-1.647c-1.498,0 -2.911,0.583 -3.974,1.647c-1.061,1.063 -1.641,2.476 -1.646,3.977c0,1.501 0.582,2.911 1.646,3.974c2.116,2.125 5.819,2.125 7.949,0z" style="paint-order: fill; fill-rule: evenodd; fill: rgb(255, 255, 255);"/>
          <path d="M249.65601,202.11198c0,2.218 1.807,4.028 4.028,4.028h42.62899c2.224,0 4.029,-1.81 4.029,-4.028v-42.63199c0,-2.224 -1.805,-4.028 -4.029,-4.028h-42.62899c-2.221,0 -4.028,1.807 -4.028,4.028zM253.51501,160.65299c0,-0.741 0.604,-1.342 1.342,-1.342h6.378c0.739,0 1.343,0.601 1.343,1.342v6.379c0,0.741 -0.604,1.342 -1.343,1.342h-6.378c-0.741,0 -1.342,-0.601 -1.342,-1.342zM274.999,193.38398c-6.942,0 -12.59,-5.647 -12.59,-12.589c0,-6.942 5.653,-12.587 12.59,-12.587c6.942,0 12.587,5.647 12.587,12.589c0,6.942 -5.643,12.587 -12.587,12.587z" style="paint-order: fill; fill-rule: evenodd; fill: rgb(255, 255, 255);"/>
          <path d="M256.2,161.99599h3.693v3.693h-3.693z" style="paint-order: fill; fill-rule: evenodd; fill: rgb(255, 255, 255);"/>
          <path d="M284.9,180.79498c0,5.462 -4.442,9.904 -9.901,9.904c-5.46,0 -9.904,-4.442 -9.904,-9.904c0,-5.463 4.441,-9.904 9.904,-9.904c5.465,0 9.901,4.441 9.901,9.904z" style="paint-order: fill; fill-rule: evenodd; fill: rgb(255, 255, 255);"/>
        </g>
      </g>
    </g>
  </g>
</svg>